# xmcd
#
# Track frame offsets: 
#        150
#        12375
#        24087
#        62102
#        75807
#        86517
#        98247
#        110480
#        129095
#        141532
#        152260
#        169122
#        187855
#        199670
#        212615
#        230797
#
# Disc length: 3300 seconds
#
# Revision: 12
# Processed by: cddbd v1.5.2PL0 Copyright (c) Steve Scherf et al.
# Submitted via: ExactAudioCopy v1.0b1
#
DISCID=c00ce210
DTITLE=Johnny Cash - 16 Biggest Hits
DYEAR=1999
DGENRE=Country
TTITLE0=I Walk the Line
TTITLE1=I Still Miss Someone
TTITLE2=The Legend of John Henry's Hammer
TTITLE3=Don't Take Your Guns to Town
TTITLE4=In the Jailhouse Now
TTITLE5=Ring of Fire
TTITLE6=Understand Your Man
TTITLE7=Ballad of Ira Hayes
TTITLE8=Folsom Prison Blues
TTITLE9=Daddy Sang Bass
TTITLE10=A Boy Named Sue
TTITLE11=Sunday Morning Coming Down
TTITLE12=Flesh and Blood
TTITLE13=Man in Black
TTITLE14=One Piece at a Time
TTITLE15=(Ghost) Riders in the Sky
EXTD=\n YEAR: 1999
EXTT0=
EXTT1=
EXTT2=
EXTT3=
EXTT4=
EXTT5=
EXTT6=
EXTT7=
EXTT8=
EXTT9=
EXTT10=
EXTT11=
EXTT12=
EXTT13=
EXTT14=
EXTT15=
PLAYORDER=
